# xmcd
#
# Track frame offsets: 
#        150
#        114700
#        158563
#        205842
#        258026
#        270192
#        279751
#        287901
#        301594
#        327632
#
# Disc length: 4761 seconds
#
# Revision: 5
# Processed by: cddbd v1.5.2PL0 Copyright (c) Steve Scherf et al.
# Submitted via: ExactAudioCopy v0.99pb4
#
DISCID=8112970a
DTITLE=David Oistrakh - David Oistrakh - The Complete EMI Recordings [
DTITLE=Disc  4]
DYEAR=2008
DGENRE=Classical
TTITLE0=Beethoven: Violin Concerto in D major, op.61 (rec.1959) - 1. A
TTITLE0=llegro, ma non troppo (cad.Kreisler)
TTITLE1=Beethoven: Violin Concerto in D major, op.61 (rec.1959) - 2. L
TTITLE1=arghetto -
TTITLE2=Beethoven: Violin Concerto in D major, op.61 (rec.1959) - 3. R
TTITLE2=ondo. Allegro (cad.Kreisler)
TTITLE3=Beethoven: Violin Sonata no.9 in A major, op.47 (rec.1953) - 1
TTITLE3=Adagio sostenuto - Presto
TTITLE4=Beethoven: Violin Sonata no.9 in A major, op.47 (rec.1953) - 2
TTITLE4=Andante con variazioni. Theme
TTITLE5=Beethoven: Violin Sonata no.9 in A major, op.47 (rec.1953) - 2
TTITLE5=Andante con variazioni. Var 1
TTITLE6=Beethoven: Violin Sonata no.9 in A major, op.47 (rec.1953) - 2
TTITLE6=Andante con variazioni. Var 2
TTITLE7=Beethoven: Violin Sonata no.9 in A major, op.47 (rec.1953) - 2
TTITLE7=Andante con variazioni. Var 3
TTITLE8=Beethoven: Violin Sonata no.9 in A major, op.47 (rec.1953) - 2
TTITLE8=Andante con variazioni. Var 4
TTITLE9=Beethoven: Violin Sonata no.9 in A major, op.47 (rec.1953) - 3
TTITLE9=Finale. Presto
EXTD=Beethoven
EXTT0=
EXTT1=
EXTT2=
EXTT3=
EXTT4=
EXTT5=
EXTT6=
EXTT7=
EXTT8=
EXTT9=
PLAYORDER=
